<svg width="85" height="86" viewBox="0 0 85 86" fill="none" xmlns="http://www.w3.org/2000/svg">
<g clip-path="url(#clip0_120_306)">
<path d="M75.4021 60.9883L69.2396 48.5183C67.5396 45.0425 67.5396 40.9933 69.2396 37.5175L75.4021 25.0475C80.6792 14.3333 69.3104 3.08162 58.8625 8.67162L53.4083 11.61C52.6646 12.0041 52.0625 12.6491 51.7083 13.4375L31.5208 58.7308C30.7062 60.5941 31.45 62.78 33.2208 63.7116L58.8625 77.3641C69.3104 82.9541 80.6792 71.6666 75.4021 60.9883Z" fill="#0C0507"/>
<path d="M27.2355 55.9L40.4459 26.23C41.9334 22.8975 38.3917 19.5292 35.2042 21.2492L14.7688 32.1067C6.09172 36.7292 6.09172 49.2708 14.7688 53.8933L21.9938 57.7275C23.9417 58.7667 26.3146 57.9425 27.2355 55.9Z" fill="#0C0507"/>
</g>
<defs>
<clipPath id="clip0_120_306">
<rect width="85" height="86" fill="white"/>
</clipPath>
</defs>
</svg>
