<svg width="85" height="86" viewBox="0 0 85 86" fill="none" xmlns="http://www.w3.org/2000/svg">
<path d="M9.59793 60.9883L15.7604 48.5183C17.4604 45.0425 17.4604 40.9933 15.7604 37.5175L9.59793 25.0117C4.32084 14.3333 15.6896 3.04584 26.1375 8.63584L31.5917 11.5742C32.3708 11.9683 32.9729 12.6133 33.2917 13.4017L53.4438 58.7308C54.2583 60.5942 53.5146 62.78 51.7438 63.7117L26.1021 77.3642C15.6896 82.9542 4.32084 71.6667 9.59793 60.9883Z" fill="#0C0507"/>
<path d="M57.7646 55.9L44.5542 26.23C43.0667 22.8975 46.6084 19.5292 49.7959 21.2492L70.2313 32.1425C78.9084 36.765 78.9084 49.3067 70.2313 53.9292L63.0063 57.7633C61.0584 58.7667 58.6855 57.9425 57.7646 55.9Z" fill="#0C0507"/>
</svg>
