<svg width="70" height="70" viewBox="0 0 70 70" fill="none" xmlns="http://www.w3.org/2000/svg">
<rect x="2" y="2" width="66" height="66" rx="8" fill="#98CAD5"/>
<rect x="2" y="2" width="66" height="66" rx="8" stroke="black" stroke-width="4"/>
<path d="M43.8542 56.875C45.8677 56.875 47.5 55.2427 47.5 53.2292C47.5 51.2157 45.8677 49.5834 43.8542 49.5834C41.8407 49.5834 40.2084 51.2157 40.2084 53.2292C40.2084 55.2427 41.8407 56.875 43.8542 56.875Z" fill="#0C0507"/>
<path d="M27.1875 56.875C29.201 56.875 30.8333 55.2427 30.8333 53.2292C30.8333 51.2157 29.201 49.5834 27.1875 49.5834C25.1739 49.5834 23.5416 51.2157 23.5416 53.2292C23.5416 55.2427 25.1739 56.875 27.1875 56.875Z" fill="#0C0507"/>
<path d="M20.0833 18.2083L19.6666 23.3125C19.5833 24.2916 20.3541 25.1041 21.3333 25.1041H53.2291C54.1041 25.1041 54.8333 24.4375 54.8958 23.5625C55.1666 19.875 52.3541 16.875 48.6666 16.875H23.0625C22.8541 15.9583 22.4375 15.0833 21.7916 14.3541C20.75 13.25 19.2916 12.6041 17.7916 12.6041H14.1666C13.3125 12.6041 12.6041 13.3125 12.6041 14.1666C12.6041 15.0208 13.3125 15.7291 14.1666 15.7291H17.7916C18.4375 15.7291 19.0416 16 19.4791 16.4583C19.9166 16.9375 20.125 17.5625 20.0833 18.2083Z" fill="#0C0507"/>
<path d="M52.7292 28.2291H20.7709C19.8959 28.2291 19.1875 28.8958 19.1042 29.75L18.3542 38.8125C18.0625 42.375 20.8542 45.4166 24.4167 45.4166H47.5834C50.7084 45.4166 53.4584 42.8541 53.6875 39.7291L54.375 30C54.4584 29.0416 53.7084 28.2291 52.7292 28.2291Z" fill="#0C0507"/>
</svg>
